<?xml version="1.0" encoding="UTF-8" standalone="no"?>
<!DOCTYPE svg PUBLIC "-//W3C//DTD SVG 1.1//EN"
 "http://www.w3.org/Graphics/SVG/1.1/DTD/svg11.dtd">
<!-- Generated by graphviz version 2.30.1 (20150306.0020)
 -->
<!-- Title: group_mail_irc Pages: 1 -->
<svg width="646pt" height="548pt"
 viewBox="0.00 0.00 646.06 548.00" xmlns="http://www.w3.org/2000/svg" xmlns:xlink="http://www.w3.org/1999/xlink">
<g id="graph0" class="graph" transform="scale(1 1) rotate(0) translate(4 544)">
<title>group_mail_irc</title>
<polygon fill="white" stroke="white" points="-4,5 -4,-544 643.058,-544 643.058,5 -4,5"/>
<!-- group -->
<g id="node1" class="node"><title>group</title>
<polygon fill="none" stroke="black" points="595,-540 527,-540 527,-504 595,-504 595,-540"/>
<text text-anchor="middle" x="561" y="-518.3" font-family="Times,serif" font-size="14.00">scf&#45;group</text>
</g>
<!-- fuse_from -->
<g id="node10" class="node"><title>fuse_from</title>
<ellipse fill="none" stroke="black" cx="484" cy="-450" rx="99.1619" ry="18"/>
<text text-anchor="middle" x="484" y="-446.3" font-family="Times,serif" font-size="14.00">scf&#45;json fuse from &#39;&lt;&#39; &#39;&gt; &#39;</text>
</g>
<!-- group&#45;&gt;fuse_from -->
<g id="edge6" class="edge"><title>group&#45;&gt;fuse_from</title>
<path fill="none" stroke="black" d="M541.966,-503.697C532.384,-494.986 520.619,-484.29 510.198,-474.816"/>
<polygon fill="black" stroke="black" points="512.303,-472 502.549,-467.863 507.594,-477.179 512.303,-472"/>
</g>
<!-- mail -->
<g id="node2" class="node"><title>mail</title>
<polygon fill="none" stroke="black" points="610,-180 302,-180 302,-144 610,-144 610,-180"/>
<text text-anchor="middle" x="456" y="-158.3" font-family="Times,serif" font-size="14.00">scf&#45;mail uberspace.net groupchat [password] INBOX</text>
</g>
<!-- mail_add_from -->
<g id="node3" class="node"><title>mail_add_from</title>
<ellipse fill="none" stroke="black" cx="456" cy="-90" rx="145.38" ry="18"/>
<text text-anchor="middle" x="456" y="-86.3" font-family="Times,serif" font-size="14.00">scf&#45;json cmd r from sed &#39;s/(.)/mail:\1/&#39;</text>
</g>
<!-- mail&#45;&gt;mail_add_from -->
<g id="edge1" class="edge"><title>mail&#45;&gt;mail_add_from</title>
<path fill="none" stroke="black" d="M456,-143.697C456,-135.983 456,-126.712 456,-118.112"/>
<polygon fill="black" stroke="black" points="459.5,-118.104 456,-108.104 452.5,-118.104 459.5,-118.104"/>
</g>
<!-- merge -->
<g id="node12" class="node"><title>merge</title>
<ellipse fill="none" stroke="black" cx="456" cy="-18" rx="63.5411" ry="18"/>
<text text-anchor="middle" x="456" y="-14.3" font-family="Times,serif" font-size="14.00">scf&#45;json merge</text>
</g>
<!-- mail_add_from&#45;&gt;merge -->
<g id="edge2" class="edge"><title>mail_add_from&#45;&gt;merge</title>
<path fill="none" stroke="black" d="M456,-71.6966C456,-63.9827 456,-54.7125 456,-46.1124"/>
<polygon fill="black" stroke="black" points="459.5,-46.1043 456,-36.1043 452.5,-46.1044 459.5,-46.1043"/>
</g>
<!-- mail_filter_from -->
<g id="node4" class="node"><title>mail_filter_from</title>
<ellipse fill="none" stroke="black" cx="456" cy="-306" rx="117.459" ry="18"/>
<text text-anchor="middle" x="456" y="-302.3" font-family="Times,serif" font-size="14.00">scf&#45;json cmd f to grep &#39;^mail:&#39;</text>
</g>
<!-- mail_strip_from -->
<g id="node5" class="node"><title>mail_strip_from</title>
<ellipse fill="none" stroke="black" cx="456" cy="-234" rx="120.359" ry="18"/>
<text text-anchor="middle" x="456" y="-230.3" font-family="Times,serif" font-size="14.00">scf&#45;json cmd r to sed &#39;s/mail://&#39;</text>
</g>
<!-- mail_filter_from&#45;&gt;mail_strip_from -->
<g id="edge12" class="edge"><title>mail_filter_from&#45;&gt;mail_strip_from</title>
<path fill="none" stroke="black" d="M456,-287.697C456,-279.983 456,-270.712 456,-262.112"/>
<polygon fill="black" stroke="black" points="459.5,-262.104 456,-252.104 452.5,-262.104 459.5,-262.104"/>
</g>
<!-- mail_strip_from&#45;&gt;mail -->
<g id="edge13" class="edge"><title>mail_strip_from&#45;&gt;mail</title>
<path fill="none" stroke="black" d="M456,-215.697C456,-207.983 456,-198.712 456,-190.112"/>
<polygon fill="black" stroke="black" points="459.5,-190.104 456,-180.104 452.5,-190.104 459.5,-190.104"/>
</g>
<!-- irc -->
<g id="node6" class="node"><title>irc</title>
<polygon fill="none" stroke="black" points="284,-180 0,-180 0,-144 284,-144 284,-180"/>
<text text-anchor="middle" x="142" y="-158.3" font-family="Times,serif" font-size="14.00">scf&#45;irc irc.freenode.net 6697 True scf&#45;irc #scf&#45;irc</text>
</g>
<!-- irc_add_from -->
<g id="node7" class="node"><title>irc_add_from</title>
<ellipse fill="none" stroke="black" cx="148" cy="-90" rx="139.132" ry="18"/>
<text text-anchor="middle" x="148" y="-86.3" font-family="Times,serif" font-size="14.00">scf&#45;json cmd r from sed &#39;s/(.)/irc:\1/&#39;</text>
</g>
<!-- irc&#45;&gt;irc_add_from -->
<g id="edge3" class="edge"><title>irc&#45;&gt;irc_add_from</title>
<path fill="none" stroke="black" d="M143.483,-143.697C144.144,-135.983 144.939,-126.712 145.676,-118.112"/>
<polygon fill="black" stroke="black" points="149.167,-118.367 146.534,-108.104 142.193,-117.769 149.167,-118.367"/>
</g>
<!-- irc_add_from&#45;&gt;merge -->
<g id="edge4" class="edge"><title>irc_add_from&#45;&gt;merge</title>
<path fill="none" stroke="black" d="M213.696,-74.0691C268.468,-61.621 345.748,-44.0572 398.198,-32.1369"/>
<polygon fill="black" stroke="black" points="399.041,-35.5346 408.016,-29.9054 397.489,-28.7087 399.041,-35.5346"/>
</g>
<!-- irc_filter_from -->
<g id="node8" class="node"><title>irc_filter_from</title>
<ellipse fill="none" stroke="black" cx="193" cy="-306" rx="110.235" ry="18"/>
<text text-anchor="middle" x="193" y="-302.3" font-family="Times,serif" font-size="14.00">scf&#45;json cmd f to grep &#39;^irc:&#39;</text>
</g>
<!-- irc_strip_from -->
<g id="node9" class="node"><title>irc_strip_from</title>
<ellipse fill="none" stroke="black" cx="159" cy="-234" rx="113.135" ry="18"/>
<text text-anchor="middle" x="159" y="-230.3" font-family="Times,serif" font-size="14.00">scf&#45;json cmd r to sed &#39;s/irc://&#39;</text>
</g>
<!-- irc_filter_from&#45;&gt;irc_strip_from -->
<g id="edge9" class="edge"><title>irc_filter_from&#45;&gt;irc_strip_from</title>
<path fill="none" stroke="black" d="M184.596,-287.697C180.725,-279.728 176.048,-270.1 171.757,-261.264"/>
<polygon fill="black" stroke="black" points="174.825,-259.57 167.308,-252.104 168.529,-262.629 174.825,-259.57"/>
</g>
<!-- irc_strip_from&#45;&gt;irc -->
<g id="edge10" class="edge"><title>irc_strip_from&#45;&gt;irc</title>
<path fill="none" stroke="black" d="M154.798,-215.697C152.904,-207.898 150.623,-198.509 148.516,-189.829"/>
<polygon fill="black" stroke="black" points="151.915,-188.996 146.154,-180.104 145.113,-190.648 151.915,-188.996"/>
</g>
<!-- copy -->
<g id="node11" class="node"><title>copy</title>
<ellipse fill="none" stroke="black" cx="456" cy="-378" rx="27" ry="18"/>
<text text-anchor="middle" x="456" y="-374.3" font-family="Times,serif" font-size="14.00">tee</text>
</g>
<!-- fuse_from&#45;&gt;copy -->
<g id="edge7" class="edge"><title>fuse_from&#45;&gt;copy</title>
<path fill="none" stroke="black" d="M477.079,-431.697C473.878,-423.696 470.008,-414.02 466.462,-405.155"/>
<polygon fill="black" stroke="black" points="469.613,-403.607 462.649,-395.622 463.113,-406.207 469.613,-403.607"/>
</g>
<!-- copy&#45;&gt;irc_filter_from -->
<g id="edge8" class="edge"><title>copy&#45;&gt;irc_filter_from</title>
<path fill="none" stroke="black" d="M431.258,-370.415C391.933,-359.948 313.889,-339.176 257.828,-324.255"/>
<polygon fill="black" stroke="black" points="258.545,-320.824 247.981,-321.634 256.744,-327.588 258.545,-320.824"/>
</g>
<!-- copy&#45;&gt;mail_filter_from -->
<g id="edge11" class="edge"><title>copy&#45;&gt;mail_filter_from</title>
<path fill="none" stroke="black" d="M456,-359.697C456,-351.983 456,-342.712 456,-334.112"/>
<polygon fill="black" stroke="black" points="459.5,-334.104 456,-324.104 452.5,-334.104 459.5,-334.104"/>
</g>
<!-- merge&#45;&gt;group -->
<g id="edge5" class="edge"><title>merge&#45;&gt;group</title>
<path fill="none" stroke="black" d="M513.31,-25.8947C545.649,-32.6132 584.554,-45.8669 610,-72 638.928,-101.71 638,-119.533 638,-161 638,-379 638,-379 638,-379 638,-424.493 607.082,-469.349 584.429,-496.108"/>
<polygon fill="black" stroke="black" points="581.645,-493.976 577.708,-503.812 586.919,-498.578 581.645,-493.976"/>
</g>
</g>
</svg>
