<?xml version="1.0" encoding="UTF-8" standalone="no"?>
<!DOCTYPE svg PUBLIC "-//W3C//DTD SVG 1.1//EN"
 "http://www.w3.org/Graphics/SVG/1.1/DTD/svg11.dtd">
<!-- Generated by graphviz version 2.30.1 (20150306.0020)
 -->
<!-- Title: group_mail_irc Pages: 1 -->
<svg width="674pt" height="620pt"
 viewBox="0.00 0.00 674.00 620.00" xmlns="http://www.w3.org/2000/svg" xmlns:xlink="http://www.w3.org/1999/xlink">
<g id="graph0" class="graph" transform="scale(1 1) rotate(0) translate(4 616)">
<title>group_mail_irc</title>
<polygon fill="white" stroke="white" points="-4,5 -4,-616 671,-616 671,5 -4,5"/>
<!-- group -->
<g id="node1" class="node"><title>group</title>
<polygon fill="none" stroke="black" points="602,-612 534,-612 534,-576 602,-576 602,-612"/>
<text text-anchor="middle" x="568" y="-590.3" font-family="Times,serif" font-size="14.00">scf&#45;group</text>
</g>
<!-- copy -->
<g id="node12" class="node"><title>copy</title>
<ellipse fill="none" stroke="black" cx="470" cy="-522" rx="27" ry="18"/>
<text text-anchor="middle" x="470" y="-518.3" font-family="Times,serif" font-size="14.00">tee</text>
</g>
<!-- group&#45;&gt;copy -->
<g id="edge7" class="edge"><title>group&#45;&gt;copy</title>
<path fill="none" stroke="black" d="M544.027,-575.876C529.532,-565.523 511.043,-552.316 496.169,-541.692"/>
<polygon fill="black" stroke="black" points="498.058,-538.74 487.887,-535.776 493.99,-544.437 498.058,-538.74"/>
</g>
<!-- mail -->
<g id="node2" class="node"><title>mail</title>
<polygon fill="none" stroke="black" points="624,-252 316,-252 316,-216 624,-216 624,-252"/>
<text text-anchor="middle" x="470" y="-230.3" font-family="Times,serif" font-size="14.00">scf&#45;mail uberspace.net groupchat [password] INBOX</text>
</g>
<!-- mail_add_from -->
<g id="node3" class="node"><title>mail_add_from</title>
<ellipse fill="none" stroke="black" cx="470" cy="-162" rx="143.456" ry="18"/>
<text text-anchor="middle" x="470" y="-158.3" font-family="Times,serif" font-size="14.00">scf&#45;json cmd r from sed &#39;s/(.)/mail:1/&#39;</text>
</g>
<!-- mail&#45;&gt;mail_add_from -->
<g id="edge1" class="edge"><title>mail&#45;&gt;mail_add_from</title>
<path fill="none" stroke="black" d="M470,-215.697C470,-207.983 470,-198.712 470,-190.112"/>
<polygon fill="black" stroke="black" points="473.5,-190.104 470,-180.104 466.5,-190.104 473.5,-190.104"/>
</g>
<!-- merge -->
<g id="node13" class="node"><title>merge</title>
<ellipse fill="none" stroke="black" cx="470" cy="-90" rx="63.5411" ry="18"/>
<text text-anchor="middle" x="470" y="-86.3" font-family="Times,serif" font-size="14.00">scf&#45;json merge</text>
</g>
<!-- mail_add_from&#45;&gt;merge -->
<g id="edge2" class="edge"><title>mail_add_from&#45;&gt;merge</title>
<path fill="none" stroke="black" d="M470,-143.697C470,-135.983 470,-126.712 470,-118.112"/>
<polygon fill="black" stroke="black" points="473.5,-118.104 470,-108.104 466.5,-118.104 473.5,-118.104"/>
</g>
<!-- mail_filter_from -->
<g id="node4" class="node"><title>mail_filter_from</title>
<ellipse fill="none" stroke="black" cx="470" cy="-450" rx="117.459" ry="18"/>
<text text-anchor="middle" x="470" y="-446.3" font-family="Times,serif" font-size="14.00">scf&#45;json cmd f to grep &#39;^mail:&#39;</text>
</g>
<!-- mail_strip_from -->
<g id="node5" class="node"><title>mail_strip_from</title>
<ellipse fill="none" stroke="black" cx="470" cy="-378" rx="120.359" ry="18"/>
<text text-anchor="middle" x="470" y="-374.3" font-family="Times,serif" font-size="14.00">scf&#45;json cmd r to sed &#39;s/mail://&#39;</text>
</g>
<!-- mail_filter_from&#45;&gt;mail_strip_from -->
<g id="edge12" class="edge"><title>mail_filter_from&#45;&gt;mail_strip_from</title>
<path fill="none" stroke="black" d="M470,-431.697C470,-423.983 470,-414.712 470,-406.112"/>
<polygon fill="black" stroke="black" points="473.5,-406.104 470,-396.104 466.5,-406.104 473.5,-406.104"/>
</g>
<!-- mail_set_from -->
<g id="node6" class="node"><title>mail_set_from</title>
<ellipse fill="none" stroke="black" cx="470" cy="-306" rx="167.528" ry="18"/>
<text text-anchor="middle" x="470" y="-302.3" font-family="Times,serif" font-size="14.00">scf&#45;json set from &#39;groupchat@uberspace.net&#39;</text>
</g>
<!-- mail_strip_from&#45;&gt;mail_set_from -->
<g id="edge13" class="edge"><title>mail_strip_from&#45;&gt;mail_set_from</title>
<path fill="none" stroke="black" d="M470,-359.697C470,-351.983 470,-342.712 470,-334.112"/>
<polygon fill="black" stroke="black" points="473.5,-334.104 470,-324.104 466.5,-334.104 473.5,-334.104"/>
</g>
<!-- mail_set_from&#45;&gt;mail -->
<g id="edge14" class="edge"><title>mail_set_from&#45;&gt;mail</title>
<path fill="none" stroke="black" d="M470,-287.697C470,-279.983 470,-270.712 470,-262.112"/>
<polygon fill="black" stroke="black" points="473.5,-262.104 470,-252.104 466.5,-262.104 473.5,-262.104"/>
</g>
<!-- irc -->
<g id="node7" class="node"><title>irc</title>
<polygon fill="none" stroke="black" points="284,-324 0,-324 0,-288 284,-288 284,-324"/>
<text text-anchor="middle" x="142" y="-302.3" font-family="Times,serif" font-size="14.00">scf&#45;irc irc.freenode.net 6697 True scf&#45;irc #scf&#45;irc</text>
</g>
<!-- irc_add_from -->
<g id="node8" class="node"><title>irc_add_from</title>
<ellipse fill="none" stroke="black" cx="165" cy="-162" rx="136.232" ry="18"/>
<text text-anchor="middle" x="165" y="-158.3" font-family="Times,serif" font-size="14.00">scf&#45;json cmd r from sed &#39;s/(.)/irc:1/&#39;</text>
</g>
<!-- irc&#45;&gt;irc_add_from -->
<g id="edge3" class="edge"><title>irc&#45;&gt;irc_add_from</title>
<path fill="none" stroke="black" d="M144.774,-287.871C148.694,-263.67 155.895,-219.211 160.563,-190.393"/>
<polygon fill="black" stroke="black" points="164.072,-190.62 162.216,-180.189 157.162,-189.501 164.072,-190.62"/>
</g>
<!-- irc_add_from&#45;&gt;merge -->
<g id="edge4" class="edge"><title>irc_add_from&#45;&gt;merge</title>
<path fill="none" stroke="black" d="M229.683,-146.155C283.781,-133.739 360.245,-116.19 412.294,-104.244"/>
<polygon fill="black" stroke="black" points="413.401,-107.581 422.365,-101.933 411.835,-100.758 413.401,-107.581"/>
</g>
<!-- irc_filter_from -->
<g id="node9" class="node"><title>irc_filter_from</title>
<ellipse fill="none" stroke="black" cx="203" cy="-450" rx="110.235" ry="18"/>
<text text-anchor="middle" x="203" y="-446.3" font-family="Times,serif" font-size="14.00">scf&#45;json cmd f to grep &#39;^irc:&#39;</text>
</g>
<!-- irc_strip_from -->
<g id="node10" class="node"><title>irc_strip_from</title>
<ellipse fill="none" stroke="black" cx="162" cy="-378" rx="113.135" ry="18"/>
<text text-anchor="middle" x="162" y="-374.3" font-family="Times,serif" font-size="14.00">scf&#45;json cmd r to sed &#39;s/irc://&#39;</text>
</g>
<!-- irc_filter_from&#45;&gt;irc_strip_from -->
<g id="edge9" class="edge"><title>irc_filter_from&#45;&gt;irc_strip_from</title>
<path fill="none" stroke="black" d="M193.075,-432.055C188.311,-423.922 182.499,-413.998 177.195,-404.943"/>
<polygon fill="black" stroke="black" points="180.193,-403.135 172.118,-396.275 174.152,-406.673 180.193,-403.135"/>
</g>
<!-- irc_strip_from&#45;&gt;irc -->
<g id="edge10" class="edge"><title>irc_strip_from&#45;&gt;irc</title>
<path fill="none" stroke="black" d="M157.056,-359.697C154.828,-351.898 152.145,-342.509 149.665,-333.829"/>
<polygon fill="black" stroke="black" points="153,-332.758 146.887,-324.104 146.269,-334.681 153,-332.758"/>
</g>
<!-- fuse_from -->
<g id="node11" class="node"><title>fuse_from</title>
<ellipse fill="none" stroke="black" cx="568" cy="-18" rx="85.19" ry="18"/>
<text text-anchor="middle" x="568" y="-14.3" font-family="Times,serif" font-size="14.00">scf&#45;json fuse from &#39;: &#39;</text>
</g>
<!-- fuse_from&#45;&gt;group -->
<g id="edge6" class="edge"><title>fuse_from&#45;&gt;group</title>
<path fill="none" stroke="black" d="M589.749,-35.6652C618.621,-59.8582 666,-107.682 666,-161 666,-451 666,-451 666,-451 666,-499.462 626.858,-543.385 598.048,-569.151"/>
<polygon fill="black" stroke="black" points="595.499,-566.729 590.238,-575.925 600.085,-572.017 595.499,-566.729"/>
</g>
<!-- copy&#45;&gt;irc_filter_from -->
<g id="edge8" class="edge"><title>copy&#45;&gt;irc_filter_from</title>
<path fill="none" stroke="black" d="M445.36,-514.54C405.453,-504.078 325.392,-483.088 268.208,-468.096"/>
<polygon fill="black" stroke="black" points="269.086,-464.708 258.525,-465.557 267.311,-471.479 269.086,-464.708"/>
</g>
<!-- copy&#45;&gt;mail_filter_from -->
<g id="edge11" class="edge"><title>copy&#45;&gt;mail_filter_from</title>
<path fill="none" stroke="black" d="M470,-503.697C470,-495.983 470,-486.712 470,-478.112"/>
<polygon fill="black" stroke="black" points="473.5,-478.104 470,-468.104 466.5,-478.104 473.5,-478.104"/>
</g>
<!-- merge&#45;&gt;fuse_from -->
<g id="edge5" class="edge"><title>merge&#45;&gt;fuse_from</title>
<path fill="none" stroke="black" d="M492.238,-73.1159C505.361,-63.7418 522.18,-51.7286 536.635,-41.4033"/>
<polygon fill="black" stroke="black" points="538.725,-44.2121 544.828,-35.5516 534.656,-38.516 538.725,-44.2121"/>
</g>
</g>
</svg>
